<svg xmlns="http://www.w3.org/2000/svg" width="78" height="78" viewBox="0 0 78 78" fill="none"><g clip-path="url(#clip0_280_54)"><path d="M39.7922 34.259C39.642 34.4148 39.462 34.5387 39.2629 34.6233C39.0637 34.708 38.8496 34.7516 38.6332 34.7516C38.4168 34.7516 38.2027 34.708 38.0035 34.6233C37.8044 34.5387 37.6244 34.4148 37.4742 34.259L22.1689 18.3775C20.7252 16.9432 19.7713 15.0896 19.4435 13.0811C19.1157 11.0726 19.4307 9.01194 20.3435 7.19309C21.0399 5.8184 22.0516 4.62791 23.2959 3.71885C24.5403 2.80979 25.982 2.20794 27.5033 1.96244C29.0246 1.71694 30.5825 1.83475 32.0496 2.30627C33.5167 2.77778 34.8515 3.58962 35.945 4.67549L38.6332 7.35085L41.3214 4.67549C42.4149 3.58962 43.7497 2.77778 45.2168 2.30627C46.6839 1.83475 48.2418 1.71694 49.7631 1.96244C51.2844 2.20794 52.7261 2.80979 53.9705 3.71885C55.2148 4.62791 56.2265 5.8184 56.9229 7.19309C57.8357 9.01194 58.1507 11.0726 57.8229 13.0811C57.4951 15.0896 56.5412 16.9432 55.0974 18.3775L39.7922 34.259Z" stroke="#FF206E" stroke-width="3.21945" stroke-linecap="round" stroke-linejoin="round"></path><path d="M17.7067 56.5669C23.0408 56.5669 27.365 52.2427 27.365 46.9086C27.365 41.5744 23.0408 37.2502 17.7067 37.2502C12.3725 37.2502 8.04834 41.5744 8.04834 46.9086C8.04834 52.2427 12.3725 56.5669 17.7067 56.5669Z" stroke="#322F56" stroke-width="3.21945" stroke-linecap="round" stroke-linejoin="round"></path><path d="M9.38477 42.0051C11.6492 44.3508 14.5743 45.9514 17.7708 46.5938C20.9673 47.2362 24.2836 46.89 27.2785 45.6012" stroke="#322F56" stroke-width="3.21945" stroke-linecap="round" stroke-linejoin="round"></path><path d="M71.2849 57.0302C69.9989 54.9194 69.3577 52.4789 69.4402 50.0086V47.1368C69.4402 44.5164 68.3992 42.0032 66.5463 40.1503C64.6933 38.2973 62.1802 37.2563 59.5597 37.2563C56.9392 37.2563 54.4261 38.2973 52.5731 40.1503C50.7202 42.0032 49.6792 44.5164 49.6792 47.1368V50.0086C49.7617 52.4789 49.1205 54.9194 47.8345 57.0302" stroke="#322F56" stroke-width="3.21945" stroke-linecap="round" stroke-linejoin="round"></path><path d="M49.6792 48.769C51.5545 48.766 53.4073 48.3599 55.1119 47.5784C56.8166 46.7969 58.3335 45.6581 59.5597 44.2393C60.7859 45.6581 62.3027 46.7969 64.0074 47.5784C65.7121 48.3599 67.5649 48.766 69.4402 48.769" stroke="#322F56" stroke-width="3.21945" stroke-linecap="round" stroke-linejoin="round"></path><path d="M50.8867 48.7114C51.1023 50.8623 52.1093 52.8565 53.7122 54.3068C55.3152 55.7571 57.3998 56.5602 59.5615 56.5602C61.7232 56.5602 63.8078 55.7571 65.4108 54.3068C67.0138 52.8565 68.0207 50.8623 68.2363 48.7114" stroke="#322F56" stroke-width="3.21945" stroke-linecap="round" stroke-linejoin="round"></path><path d="M17.7071 59.7861C13.4378 59.7861 9.34345 61.4821 6.32463 64.5009C3.30582 67.5197 1.60986 71.6141 1.60986 75.8834H33.8043C33.8043 71.6141 32.1084 67.5197 29.0896 64.5009C26.0707 61.4821 21.9763 59.7861 17.7071 59.7861Z" stroke="#322F56" stroke-width="3.21945" stroke-linecap="round" stroke-linejoin="round"></path><path d="M59.5596 59.7861C55.2904 59.7861 51.196 61.4821 48.1772 64.5009C45.1584 67.5197 43.4624 71.6141 43.4624 75.8834H75.6569C75.6569 71.6141 73.9609 67.5197 70.9421 64.5009C67.9233 61.4821 63.8289 59.7861 59.5596 59.7861Z" stroke="#322F56" stroke-width="3.21945" stroke-linecap="round" stroke-linejoin="round"></path></g><defs><clipPath id="clip0_280_54"><rect width="77.2667" height="77.2667" fill="white" transform="translate(0 0.226318)"></rect></clipPath></defs></svg>